<svg width="494" height="125" viewBox="0 0 494 125" fill="none" xmlns="http://www.w3.org/2000/svg">
<path d="M-0.0078125 9.87452L0.0766962 9.93047C0.0587984 9.92848 0.0339455 9.93349 0.025991 9.9245C0.0130648 9.90852 0.011073 9.88251 0.00411278 9.86154L-0.0078125 9.87452ZM19.6002 8.34973C20.5945 8.31278 21.3014 9.29437 21.0002 10.243C20.7496 11.0299 19.9094 11.7 18.7838 11.3185C17.9794 11.0449 17.6612 10.0513 18.0798 9.25541C18.3811 8.68224 18.938 8.35073 19.6002 8.34973ZM447.644 124.111C448.768 124.111 449.892 124.112 451.016 124.11C451.891 124.108 452.76 124.026 453.608 123.794C453.847 123.728 454.079 123.633 454.31 123.54C454.664 123.396 454.925 123.155 455.173 122.853C456.486 121.241 457.845 119.67 459.46 118.346C460.356 117.623 461.317 116.986 462.332 116.445C462.99 116.087 463.664 115.756 464.309 115.375C465.039 114.944 465.747 114.473 466.461 114.013C466.648 113.893 466.8 113.717 467.047 113.703C467.113 113.699 467.185 113.644 467.238 113.594C467.691 113.165 468.143 112.731 468.594 112.299C469.76 110.556 469.935 109.157 468.95 107.3C468.822 107.058 468.647 106.841 468.486 106.618C468.011 105.943 467.618 105.213 467.317 104.443C467.243 104.259 467.128 104.092 467.03 103.918C466.516 103.001 465.997 102.087 465.489 101.167C465.356 100.925 465.241 100.675 465.144 100.417C464.077 97.6108 464.556 95.0585 466.407 92.7358C466.578 92.5212 466.778 92.3274 466.929 92.0988C467.165 91.7383 467.503 91.5545 467.901 91.4506C468.53 91.2907 469.174 91.1964 469.823 91.1691C470.098 91.1551 470.373 91.1531 470.647 91.1531C472.021 91.1481 473.394 91.1511 474.767 91.1381C475.14 91.1341 475.513 91.0872 475.884 91.0563C476.531 91.0013 477.178 90.9464 477.823 90.8865C478.072 90.8635 478.341 90.8805 478.561 90.7866C478.922 90.6308 479.131 90.8096 479.339 91.0353C479.491 91.201 479.615 91.3918 479.766 91.5575C480.313 92.1465 480.973 92.6177 481.707 92.9425C482.734 93.4079 483.793 93.7843 484.917 93.9192C485.702 94.013 486.463 93.8941 487.141 93.4578C487.463 93.2501 487.791 93.0933 488.181 93.0794C488.279 93.0764 488.377 93.0454 488.473 93.0224C488.84 92.9326 489.103 92.7268 489.202 92.3464C489.228 92.2495 489.251 92.1507 489.288 92.0588C489.357 91.879 489.491 91.7672 489.686 91.7692C490.009 91.7732 490.332 91.7902 490.655 91.8102C490.878 91.8242 491.102 91.8751 491.323 91.8681C491.743 91.8571 491.947 91.5695 491.85 91.1561C491.827 91.0592 491.779 90.9684 491.755 90.8715C491.707 90.6818 491.752 90.6009 491.945 90.531C492.109 90.4701 492.28 90.4292 492.44 90.3613C492.668 90.2644 492.704 89.9718 492.513 89.803C492.421 89.7212 492.315 89.6543 492.214 89.5794C491.512 89.0571 490.803 88.5448 490.112 88.0096C489.677 87.6731 489.254 87.3216 488.758 87.0739C488.645 87.017 488.638 86.9261 488.741 86.8502C489.431 86.349 490.043 85.7588 490.647 85.1587C491.145 84.6644 491.573 84.1039 491.919 83.493C492.86 81.8629 493.476 80.0638 493.731 78.1967C493.971 76.4312 493.864 74.6967 493.338 72.9931C492.85 71.4144 492.366 69.8336 491.86 68.2609C491.419 66.8939 490.749 65.6357 489.994 64.4194C489.622 63.8253 489.275 63.2163 488.953 62.594C487.501 59.7721 485.717 57.1798 483.652 54.7802C480.26 50.8379 476.29 47.5815 471.908 44.8165C466.809 41.5991 461.352 39.1586 455.641 37.2723C452.016 36.0736 448.32 35.1067 444.573 34.3774C443.791 34.2257 443.005 34.0829 442.222 33.9331C442.075 33.9058 441.928 33.8735 441.783 33.8362C441.035 33.6485 440.286 33.4657 439.537 33.281C438.489 33.0224 437.539 32.5061 436.613 31.9579C435.581 31.3478 434.549 30.7397 433.459 30.2324C432.055 29.5793 430.596 29.2168 429.039 29.2737C428.341 29.2987 427.641 29.2677 426.942 29.2817C426.424 29.2927 425.969 29.1699 425.544 28.8534C424.82 28.3161 424.028 27.8877 423.224 27.4813C422.62 27.1801 422.049 26.8167 421.52 26.3969C421.259 26.1882 421.163 25.9535 421.215 25.615C421.391 24.4446 421.342 23.2643 421.327 22.086C421.318 21.394 421.092 20.7569 420.719 20.1768C420.53 19.8822 420.321 19.5996 420.126 19.308C419.994 19.1093 420.002 19.0185 420.193 18.8647C420.388 18.7089 420.588 18.5571 420.803 18.4333C421.391 18.0958 422.009 17.8331 422.677 17.6983C422.873 17.6609 423.067 17.6129 423.258 17.5546C423.937 17.3369 424.547 17.0083 424.969 16.4082C425.329 15.8969 425.692 15.3866 426.024 14.8564C426.622 13.9018 427.21 12.9401 427.778 11.9675C428.832 10.1656 430.26 8.61297 431.965 7.41509C433.254 6.49954 434.33 5.31432 435.119 3.94107C435.521 3.24906 435.923 2.55406 436.457 1.94893C436.52 1.87172 436.557 1.77679 436.564 1.67728C436.587 1.24989 436.239 0.702665 435.833 0.551881C435.365 0.37813 434.889 0.229359 434.379 0.231356C434.005 0.233353 433.629 0.236372 433.256 0.217399C432.179 0.162478 431.175 0.437044 430.22 0.90038C429.276 1.35972 428.36 1.87198 427.566 2.57797C427.211 2.89352 426.832 3.18113 426.471 3.48969C425.745 4.10477 425.1 4.81008 424.551 5.58867C423.96 6.42847 423.387 7.28323 422.753 8.08808C421.863 9.20334 420.952 10.3016 420.021 11.3824C419.118 12.4448 417.983 13.2208 416.797 13.9268C416.624 14.0275 416.441 14.1092 416.251 14.1704C415.837 14.3102 415.424 14.3332 415.018 14.1145C414.666 13.9258 414.301 13.76 413.949 13.5742C412.933 13.037 411.916 12.5038 410.849 12.0734C409.888 11.685 408.898 11.4543 407.856 11.5252C407.659 11.5368 407.465 11.5772 407.28 11.645C405.909 12.1732 404.519 12.2721 403.102 11.8607C402.288 11.625 401.478 11.3744 400.662 11.1418C400.326 11.0459 399.979 10.9919 399.644 10.8941C399.03 10.7153 398.409 10.7193 397.788 10.7962C396.102 11.0069 394.435 11.3125 392.809 11.8158C391.346 12.2681 390.179 13.1169 389.358 14.426C389.318 14.489 389.281 14.5548 389.237 14.6168C388.913 15.0751 389.047 15.5224 389.288 15.9538C389.322 16.0137 389.482 16.0607 389.547 16.0317C389.818 15.9077 390.081 15.767 390.334 15.6103C390.696 15.3866 391.041 15.139 391.402 14.9153C391.789 14.6767 392.219 14.5438 392.662 14.456C392.964 14.3961 393.262 14.426 393.538 14.5678C393.621 14.6202 393.688 14.694 393.733 14.7815C393.805 14.9103 393.714 15.117 393.578 15.147C393.483 15.174 393.384 15.1835 393.285 15.175C392.735 15.0851 392.246 15.2638 391.784 15.5254C391.437 15.7211 391.107 15.9488 390.779 16.1755C390.301 16.505 389.819 16.8146 389.211 16.8176C389.034 16.8176 388.936 16.9364 388.882 17.0812C388.615 17.7882 388.429 18.5122 388.458 19.2791C388.467 19.5137 388.55 19.7044 388.662 19.9071C389.541 21.4989 390.836 22.7062 392.213 23.8396C392.599 24.1561 393.027 24.4217 393.41 24.7423C393.849 25.1107 394.259 25.5132 394.682 25.9016C394.697 26.306 395.044 26.4628 395.286 26.6884C395.54 26.9261 395.812 27.1548 396.104 27.3425C396.719 27.737 397.245 28.2372 397.793 28.7115C398.276 29.1299 398.606 29.6602 398.845 30.2474C399.089 30.8495 399.316 31.4606 399.551 32.0678C400.524 34.5802 401.984 36.774 403.842 38.7113C404.557 39.4472 405.251 40.2027 405.924 40.977C406.856 42.0634 407.625 43.2667 408.285 44.5379C408.678 45.2958 408.983 46.0807 409.11 46.9404C409.179 47.4108 409.221 47.8691 409.219 48.3435C409.212 49.4718 409.325 50.5932 409.446 51.7146C409.611 53.2474 410.01 54.7153 410.56 56.1462C411.114 57.5712 411.791 58.945 412.582 60.2524C413.582 61.9324 414.732 63.5179 416.016 64.9896C416.413 65.4409 416.783 65.9153 417.181 66.3656C417.594 66.8349 418.023 67.2903 418.453 67.7446C418.589 67.8894 418.731 68.0472 418.903 68.1381C419.4 68.4027 419.761 68.8151 420.144 69.2105C421.061 70.1562 422.117 70.8981 423.344 71.3874C424.062 71.674 424.774 71.9766 425.485 72.2821C425.69 72.371 425.892 72.4778 426.072 72.6076C426.342 72.8034 426.519 73.064 426.579 73.4095C426.629 73.7041 426.725 73.9897 426.805 74.2772C427 74.9762 427.26 75.6643 427.378 76.3763C427.524 77.261 427.593 78.1557 427.528 79.0674C427.409 80.735 426.973 82.3207 426.482 83.9015C426.207 84.7852 425.918 85.6679 425.767 86.5846C425.685 87.0789 425.602 87.5732 425.546 88.0705C425.473 88.7286 425.579 89.3766 425.771 90.0008C426.05 90.9095 426.361 91.8082 426.679 92.7049C426.904 93.342 427.186 93.9591 427.403 94.5982C427.946 96.1929 428.716 97.6857 429.402 99.2145C429.773 100.039 430.27 100.795 430.809 101.519C430.986 101.757 431.203 101.972 431.429 102.164C432.144 102.776 433.14 102.723 433.803 102.292C434.245 102.006 434.61 101.613 434.864 101.15C435.26 100.451 435.503 99.6748 435.578 98.874C435.725 97.2903 435.535 95.7725 434.754 94.3595C434.572 94.032 434.41 93.6914 434.236 93.3589C433.991 92.8935 433.745 92.4289 433.498 91.9649C433.035 91.1002 432.742 90.1665 432.409 89.2488C432.164 88.5728 432.213 87.9227 432.569 87.2936C432.767 86.9451 432.943 86.5846 433.126 86.2281C434.009 84.5096 434.59 82.6505 434.842 80.733C435.009 79.441 435.148 78.1456 435.259 76.8476C435.338 75.9759 435.581 75.19 436.143 74.5C436.895 73.5783 437.415 72.5228 437.788 71.3974C437.854 71.1967 437.947 71.1058 438.134 71.0729C438.576 70.995 439.015 70.8881 439.46 70.8442C440.253 70.7653 441.05 70.7094 441.848 70.6694C442.969 70.6135 444.091 70.5796 445.213 70.5376C445.338 70.5326 445.463 70.5316 445.588 70.5376C446.3 70.5726 446.374 70.6345 446.547 71.3225C446.566 71.3954 446.598 71.4653 446.61 71.5392C446.858 73.102 447.609 74.4151 448.636 75.5804C449.547 76.612 450.481 77.6245 451.404 78.645C451.997 79.2899 452.534 79.9852 453.007 80.723C453.286 81.1664 453.56 81.6217 453.775 82.0991C454.267 83.1738 454.459 84.3622 454.333 85.5382C454.2 86.8153 453.868 88.0476 453.624 89.3008C453.452 90.1855 453.262 91.0652 453.186 91.9679C453.116 92.8182 453.223 93.6738 453.5 94.4804C453.708 95.1005 453.976 95.6956 454.329 96.2448C455.155 97.529 455.995 98.8042 456.828 100.084C457.115 100.525 457.406 100.963 457.68 101.411C458.314 102.449 458.707 103.58 458.95 104.768C458.99 104.96 459.051 105.145 458.954 105.352C458.893 105.48 458.898 105.644 458.896 105.793C458.877 107.351 458.372 108.743 457.449 109.981C457.106 110.441 456.723 110.874 456.337 111.299C455.881 111.804 455.293 112.171 454.64 112.357C454.113 112.51 453.588 112.678 453.052 112.791C451.971 113.019 451.05 113.541 450.226 114.26C449.49 114.901 448.764 115.554 448.138 116.307C447.714 116.816 447.228 117.236 446.599 117.467C446.555 117.483 446.519 117.521 446.479 117.549C446.52 117.564 446.561 117.589 446.603 117.594C446.752 117.611 446.904 117.607 447.049 117.638C447.169 117.663 447.287 117.714 447.392 117.774C447.512 117.842 447.572 117.975 447.517 118.094C447.469 118.195 447.357 118.33 447.268 118.334C446.995 118.344 446.721 118.329 446.451 118.289C445.631 118.192 444.801 118.229 443.993 118.399C443.45 118.502 442.941 118.736 442.508 119.08C442.142 119.383 441.766 119.673 441.381 119.951C441.159 120.108 440.917 120.263 440.661 120.335C439.904 120.549 439.232 120.92 438.589 121.36C438.507 121.417 438.43 121.491 438.339 121.523C437.93 121.667 437.867 122.019 437.864 122.371C437.86 122.78 438.086 123.085 438.435 123.28C438.585 123.365 438.761 123.406 438.93 123.449C439.049 123.48 439.176 123.49 439.3 123.494C439.698 123.505 440.115 123.583 440.49 123.492C440.854 123.404 441.004 122.971 441.274 122.715C441.655 122.353 442.022 121.976 442.427 121.644C442.995 121.179 443.636 120.849 444.38 120.761C444.763 120.716 445.087 120.54 445.391 120.306C445.749 120.034 446.112 119.767 446.486 119.518C447.173 119.052 447.976 118.786 448.804 118.751C449.197 118.735 449.597 118.814 449.987 118.883C450.124 118.907 450.256 119.012 450.365 119.108C450.413 119.15 450.445 119.206 450.459 119.267C450.472 119.329 450.465 119.394 450.44 119.452C450.411 119.521 450.36 119.579 450.294 119.617C450.229 119.655 450.154 119.67 450.079 119.66C450.006 119.647 449.936 119.619 449.865 119.596C448.892 119.269 447.988 119.501 447.131 119.975C446.739 120.195 446.366 120.449 446.017 120.733C445.538 121.116 445.033 121.412 444.413 121.483C443.902 121.542 443.457 121.769 443.054 122.073C442.736 122.313 442.425 122.569 442.144 122.852C441.96 123.036 441.693 123.169 441.655 123.475C441.932 123.629 442.195 123.834 442.492 123.923C442.821 124.021 443.188 124.074 443.527 124.04C444.604 123.932 445.673 124.078 446.745 124.069C447.045 124.067 447.344 124.069 447.644 124.069V124.111ZM406.011 20.2477C405.073 20.2107 404.238 19.7604 403.624 18.9326C403.164 18.3115 402.785 17.6314 402.231 17.0792C402.192 17.0378 402.163 16.9872 402.148 16.9319C402.133 16.8766 402.132 16.8184 402.144 16.7625C402.157 16.7067 402.184 16.6549 402.221 16.6119C402.259 16.5688 402.307 16.5359 402.36 16.516C402.819 16.3542 403.179 16.0487 403.563 15.7721C403.724 15.6552 403.896 15.5494 404.076 15.4665C404.536 15.2529 405.006 15.162 405.525 15.2608C406.175 15.3837 406.756 15.6443 407.317 15.9788C407.779 16.2554 408.132 16.6339 408.383 17.1082C408.652 17.6145 408.85 18.1577 409.25 18.5901C409.389 18.7398 409.325 19.0055 409.159 19.1233C409.079 19.1802 408.99 19.2481 408.897 19.2611C408.487 19.319 408.169 19.5647 407.82 19.7544C407.289 20.042 406.73 20.2477 406.011 20.2477ZM430.602 5.34506C430.779 5.35804 430.862 5.34402 430.925 5.37298C431.013 5.41095 431.091 5.46952 431.152 5.54375C431.217 5.62863 431.155 5.80037 431.04 5.86428C430.888 5.94816 430.731 6.03105 430.567 6.08497C428.745 6.68111 427.222 7.72765 425.94 9.14961C424.917 10.285 424.024 11.5232 423.119 12.7514C422.378 13.759 421.64 14.7695 420.868 15.7511C419.947 16.9194 418.762 17.7293 417.353 18.1996C417.164 18.2577 416.968 18.2886 416.771 18.2915C416.64 18.2945 416.547 18.1856 416.522 18.0518C416.497 17.923 416.519 17.7862 416.637 17.7203C416.787 17.6364 416.955 17.5815 417.118 17.5226C418.392 17.0652 419.472 16.3293 420.326 15.2698C420.576 14.9583 420.826 14.6457 421.064 14.3241C422.014 13.035 422.948 11.7349 423.909 10.4557C424.722 9.37527 425.601 8.35074 426.63 7.46501C427.588 6.64119 428.672 6.03203 429.836 5.56271C430.11 5.44987 430.407 5.39898 430.602 5.34506Z" fill="black"/>
</svg>
