<svg width="531" height="96" viewBox="0 0 531 96" fill="none" xmlns="http://www.w3.org/2000/svg">
<path d="M530.053 44.3885C530.008 43.5498 529.965 42.5422 529.895 41.5366C529.835 40.7357 529.76 39.9361 529.669 39.1381C529.63 38.7796 529.555 38.4251 529.489 38.0696C529.343 37.2807 529.204 36.4899 529.041 35.704C528.504 33.1434 527.712 30.6437 526.676 28.2427C525.582 25.6758 524.202 23.242 522.561 20.9881C520.453 18.1062 517.975 15.6018 515.041 13.5647C513.452 12.4615 511.751 11.5331 509.965 10.7957C509.835 10.7437 509.698 10.7091 509.559 10.6928C509.425 10.6768 509.309 10.7727 509.276 10.8945C509.26 10.9481 509.261 11.0053 509.28 11.0578C509.299 11.1103 509.335 11.1553 509.381 11.1861C509.48 11.26 509.594 11.3199 509.709 11.3659C511.07 11.9061 512.359 12.5891 513.6 13.363C514.998 14.2404 516.318 15.2381 517.544 16.3447C520.261 18.7842 522.476 21.6272 524.272 24.8046C526.152 28.1298 527.485 31.6698 528.338 35.3934C528.521 36.1903 528.657 36.9981 528.814 37.802C528.826 37.8639 528.831 37.9268 528.838 37.9897C528.871 38.3023 528.861 38.3162 528.56 38.3272C528.326 38.3372 528.09 38.3372 527.855 38.3492C527.674 38.3592 527.634 38.4131 527.661 38.5859C527.751 39.178 527.853 39.7672 527.928 40.3613C528.025 41.1262 528.109 41.8931 528.186 42.661C528.319 43.9971 528.296 45.3382 528.257 46.6773C528.224 47.8256 528.155 48.974 528.015 50.1173C527.543 53.9896 526.36 57.7404 524.526 61.1795C523.981 62.208 523.396 63.2166 522.829 64.2331C522.798 64.288 522.762 64.34 522.73 64.3929C522.643 64.5398 522.557 64.6869 522.471 64.8343C522.629 64.9681 522.822 64.9052 522.999 64.9191C523.139 64.9291 523.283 64.9002 523.422 64.9151C523.701 64.9451 523.892 64.8153 524.076 64.6216C524.798 63.8527 525.419 62.9931 525.921 62.0642C526.494 61.0132 526.979 59.9168 527.372 58.7859C527.94 57.1662 528.466 55.5346 528.87 53.864C529.248 52.3022 529.556 50.7265 529.75 49.1308C529.87 48.1462 529.965 47.1576 529.981 46.163C529.991 45.6288 530.024 45.0945 530.053 44.3885ZM525.804 18.7503C525.833 18.936 525.855 19.1227 525.894 19.3055C525.913 19.3809 525.948 19.4514 525.996 19.5122C526.084 19.631 526.289 19.623 526.356 19.4922C526.411 19.3834 526.467 19.2576 526.465 19.1407C526.459 18.8911 526.422 18.6414 526.383 18.3948C526.365 18.28 526.284 18.2021 526.167 18.1711C525.976 18.1202 525.808 18.229 525.8 18.4208C525.794 18.5286 525.81 18.6384 525.816 18.7483L525.804 18.7503ZM492.122 37.8699C492.152 38.1695 492.18 38.464 492.218 38.7576C492.228 38.8315 492.264 38.9064 492.303 38.9723C492.364 39.0762 492.466 39.1111 492.583 39.0971C492.684 39.0851 492.762 39.0272 492.792 38.9344C492.822 38.8472 492.836 38.755 492.832 38.6628C492.812 38.3981 492.783 38.1345 492.745 37.8739C492.725 37.7509 492.69 37.6309 492.641 37.5164C492.597 37.4115 492.515 37.3367 492.39 37.3416C492.287 37.3456 492.207 37.4245 492.172 37.5513C492.16 37.5963 492.148 37.6412 492.14 37.6881C492.132 37.7491 492.128 37.812 492.122 37.8699ZM59.1154 95.6571C57.6169 95.6192 56.1105 95.5942 54.6041 95.5393C53.5229 95.4958 52.4426 95.4329 51.3636 95.3505C50.3154 95.2756 49.2685 95.1818 48.2236 95.0689C46.2449 94.8532 44.2712 94.5886 42.3074 94.2581C38.5121 93.618 34.7774 92.7423 31.1322 91.4961C29.1993 90.835 27.314 90.0621 25.4984 89.1195C24.1859 88.4374 22.9231 87.6735 21.7568 86.7598C20.7376 85.961 19.802 85.0773 19.0572 84.0078C18.5633 83.3143 18.1892 82.5423 17.9505 81.7241C17.5995 80.4808 17.6781 79.2626 18.1275 78.0613C18.4914 77.0877 19.0652 76.2469 19.7552 75.481C20.4028 74.7718 21.1234 74.1335 21.9049 73.5767C23.3626 72.5202 24.9416 71.6834 26.5882 70.9675C27.5666 70.5421 28.5619 70.1586 29.5711 69.8141C29.8834 69.7073 30.1936 69.5944 30.4998 69.4746C31.5837 69.0452 32.7122 68.7776 33.8457 68.526C34.8092 68.3113 35.7707 68.0846 36.7402 67.8939C37.8936 67.6672 39.051 67.4595 40.2114 67.2708C41.2325 67.104 42.2597 66.9732 43.2838 66.8294C43.595 66.7865 43.9072 66.7555 44.2185 66.7196C44.2811 66.7126 44.3438 66.7076 44.4064 66.7096C44.7554 66.7196 44.9602 66.9492 44.9214 67.2937C44.9145 67.3547 44.8906 67.4146 44.8697 67.4735C44.8449 67.5434 44.9026 67.5673 44.9384 67.5663C45.1571 67.5583 45.3759 67.5454 45.5946 67.5264C45.6408 67.5211 45.6834 67.4987 45.7139 67.4635C45.7716 67.3836 45.6821 67.3557 45.6433 67.3207C45.1969 66.9233 44.7464 66.5308 44.3 66.1344C44.2254 66.0675 44.1618 66.0645 44.1111 66.1484C44.0017 66.3251 43.8406 66.3461 43.6587 66.3082C43.5831 66.2912 43.5085 66.2642 43.432 66.2452C42.8423 66.0975 42.2567 66.0855 41.668 66.2712C41.3131 66.384 40.9631 66.3441 40.6101 66.2143C40.1547 66.0475 39.6864 65.9147 39.223 65.7699C39.0957 65.73 38.9824 65.7659 38.8611 65.8178C38.6466 65.9124 38.426 65.9925 38.2008 66.0575C37.7464 66.1843 37.298 66.0795 36.8526 65.9876C36.592 65.9327 36.3335 65.8678 36.074 65.8079C35.9587 65.7819 35.8731 65.8198 35.7747 65.8927C35.4466 66.1354 35.1125 66.3691 34.7675 66.5858C34.2484 66.9113 33.6777 66.9682 33.089 66.8464C32.3366 66.6861 31.6038 66.444 30.9035 66.1244C29.9132 65.68 28.8851 65.3455 27.8569 65.01C27.5139 64.8982 27.1728 64.7803 26.8388 64.6435C25.6326 64.1522 24.3927 63.7548 23.1667 63.3194C22.0282 62.915 20.8977 62.4916 19.7592 62.0872C18.7549 61.7307 17.7407 61.4002 16.7385 61.0357C14.9706 60.3916 13.1758 59.8224 11.4208 59.1394C11.2602 59.0768 11.1001 59.0129 10.9406 58.9477C10.8213 58.8988 10.7049 58.8378 10.6542 58.716C10.5876 58.5592 10.4554 58.4764 10.3301 58.3835C8.37027 56.9216 6.73064 55.1521 5.36643 53.124C4.24659 51.4469 3.32966 49.6417 2.63503 47.7467C1.95274 45.8995 1.45447 43.9889 1.14753 42.0429C0.990428 41.0643 0.889009 40.0757 0.813441 39.0861C0.706054 37.6832 0.715994 36.2822 0.764715 34.8802C0.796534 33.9515 0.893983 33.0268 1.00137 32.1042C1.22012 30.2378 1.58205 28.4015 2.06927 26.59C2.97286 23.2239 4.30637 19.9893 6.0366 16.9668C7.23616 14.8577 8.63463 12.869 10.2127 11.0283C12.8666 7.94476 15.9341 5.37245 19.5365 3.47117C21.7441 2.29607 24.1147 1.46028 26.5693 0.991721C26.9541 0.918826 27.3429 0.869896 27.7307 0.81098C27.7923 0.800995 27.8579 0.785018 27.9176 0.797C28.367 0.881879 28.8254 0.826958 29.2748 0.900852C29.7084 0.970752 30.1409 1.04764 30.5744 1.11854C32.4775 1.4271 34.3657 1.82053 36.255 2.20698C37.6221 2.48658 38.9834 2.79314 40.3486 3.08173C41.9276 3.41625 43.5095 3.74078 45.0885 4.0763C46.4229 4.3599 47.7563 4.64549 49.0877 4.94206C50.602 5.27958 52.1124 5.64006 53.6277 5.97059C54.3237 6.12337 54.9611 6.41995 55.6034 6.70853C55.9067 6.84434 56.1702 7.04305 56.4118 7.27173C56.9298 7.76202 57.3823 8.30225 57.6627 8.96929C57.7223 9.11209 57.8168 9.17699 57.9779 9.20396C58.4571 9.28384 58.9394 9.36173 59.4057 9.49354C60.8335 9.89596 62.0446 10.6439 62.9554 11.8422C63.0598 11.98 63.1752 12.1188 63.2398 12.2756C63.3522 12.5452 63.554 12.692 63.8026 12.8128C64.3524 13.0824 64.8953 13.364 65.4422 13.6406C65.5536 13.6975 65.6679 13.7514 65.7773 13.8124C65.8588 13.8583 65.9593 13.8962 66.01 13.9671C66.178 14.2038 66.4335 14.2827 66.6781 14.3835C67.3622 14.6641 68.0274 14.9857 68.6558 15.3751C69.2823 15.7636 69.9405 16.1041 70.5262 16.5564C70.6505 16.6523 70.7797 16.7442 70.8931 16.852C72.2722 18.1681 73.5907 19.5352 74.6556 21.1319C75.687 22.678 76.5481 24.332 77.2239 26.0648C78.0173 28.1061 78.5923 30.2263 78.9391 32.3897C79.1211 33.5101 79.2483 34.6355 79.3299 35.7679C79.4412 37.3117 79.4402 38.8555 79.3686 40.3983C79.2996 41.7195 79.1609 43.0361 78.953 44.3426C78.4512 47.5997 77.5522 50.7824 76.2763 53.819C76.1063 54.2255 75.9194 54.6259 75.7434 55.0293C75.7155 55.0932 75.7324 55.1531 75.801 55.1851C75.8577 55.211 75.9154 55.237 75.974 55.257C76.3956 55.3988 76.7655 55.6344 77.1264 55.8891C77.2686 55.9899 77.3969 56.1018 77.4784 56.2615C77.6216 56.5421 77.8652 56.7109 78.1417 56.8397C78.5712 57.0414 79.0206 57.1852 79.492 57.2302C80.3351 57.31 81.1813 57.368 82.0294 57.2861C82.0921 57.2801 82.1547 57.2771 82.2174 57.2741C83.33 57.2122 84.4417 57.1323 85.5543 57.0943C86.2593 57.0704 86.9662 57.1073 87.6712 57.1193C87.7975 57.1213 87.9228 57.1313 88.0481 57.1353C88.8952 57.1573 89.7394 57.2272 90.5826 57.315C91.3154 57.3919 92.0502 57.4528 92.782 57.5447C93.4353 57.6266 94.0866 57.7274 94.7349 57.8443C95.8614 58.047 96.986 58.2607 98.1086 58.4824C101.175 59.0841 104.156 60.067 106.981 61.4082C108.278 62.0233 109.473 62.8082 110.635 63.643C111.06 63.9485 111.413 64.332 111.732 64.7424C112.437 65.6511 113.102 66.5847 113.67 67.5883C114.337 68.7686 114.786 70.0248 114.962 71.3639C115.106 72.4643 115.062 73.5687 114.764 74.6472C114.543 75.452 114.329 76.2609 114.051 77.0458C113.448 78.7443 112.542 80.2632 111.268 81.5483C109.991 82.8385 108.579 83.9619 107.081 84.9814C104.931 86.4443 102.649 87.6656 100.285 88.736C96.4143 90.4895 92.3972 91.8116 88.2768 92.8302C85.0653 93.6278 81.809 94.2307 78.5255 94.6356C77.2962 94.7885 76.064 94.916 74.8296 95.018C73.8442 95.0979 72.8578 95.1548 71.8715 95.2127C70.9468 95.2667 70.021 95.2926 69.0953 95.2886C68.0755 95.2864 67.056 95.3217 66.0388 95.3945C64.5361 95.4998 63.0308 95.5647 61.5246 95.5892C60.7232 95.6012 59.9237 95.6331 59.1154 95.6571ZM76.2922 25.6454L76.3052 25.7373C76.3081 25.7523 76.3141 25.7662 76.3181 25.7812C76.327 25.7592 76.3499 25.7313 76.3439 25.7173C76.331 25.6933 76.3022 25.6774 76.2803 25.6574C76.2703 25.5835 76.2902 25.4956 76.1858 25.4687C76.1669 25.3788 76.163 25.2799 76.1262 25.198C75.9651 24.8386 75.8 24.4811 75.624 24.1296C74.7212 22.3321 73.6245 20.6685 72.2632 19.1867C72.0942 19.0019 71.9361 18.8062 71.7015 18.6904C71.6219 18.6504 71.5632 18.5655 71.4996 18.4956C71.2142 18.1821 70.9338 17.8636 70.6435 17.553C70.383 17.2789 70.0854 17.0429 69.7595 16.852C69.5716 16.7392 69.3827 16.6263 69.2007 16.5025C67.0659 15.0526 64.7203 14.1758 62.151 13.9502C60.8042 13.8298 59.4473 13.895 58.118 14.1439C56.0151 14.5393 54.0523 15.3052 52.2058 16.3877C49.9318 17.7198 47.973 19.4293 46.232 21.3985C44.5993 23.2458 43.2261 25.2769 42.0608 27.4498C40.2541 30.818 39.0182 34.3929 38.2595 38.1375C38.2432 38.2144 38.2342 38.2926 38.2327 38.3712C38.2327 38.4391 38.2694 38.493 38.341 38.503C38.6204 38.5429 38.9008 38.5769 39.1802 38.6168C39.3503 38.6408 39.3881 38.6847 39.3731 38.8705C39.3264 39.4516 39.2787 40.0328 39.222 40.613C39.1942 40.8946 39.1474 41.1752 39.1067 41.4548C38.9978 42.1395 38.9241 42.8294 38.8859 43.5218C38.8443 44.5452 38.844 45.5699 38.8849 46.5934C38.8949 46.893 38.9008 47.1925 38.9227 47.4911C38.9675 48.0723 39.0291 48.6514 39.0699 49.2336C39.1256 50.0355 39.2011 50.8353 39.3632 51.6232C39.4169 51.8838 39.5014 52.1384 39.579 52.3941C39.6197 52.5299 39.6814 52.6587 39.7231 52.7935C40.0415 53.8158 40.3971 54.826 40.7891 55.8222C41.1709 56.8058 41.5587 57.7874 42.0479 58.724C42.7018 59.9641 43.4456 61.1543 44.2732 62.2849C46.1087 64.8163 48.4443 66.7146 51.3348 67.9109C51.654 68.0427 51.9811 68.1525 52.3063 68.2673C52.3948 68.2973 52.4882 68.3173 52.5807 68.3273C52.6761 68.3392 52.8203 68.1944 52.8233 68.0776C52.8253 67.9837 52.7448 67.9548 52.6662 67.9308C52.5769 67.9019 52.4884 67.8706 52.4007 67.837C51.1757 67.3846 50.0034 66.8314 48.9196 66.0885C47.0254 64.7903 45.4763 63.1577 44.1976 61.2594C42.7787 59.1534 41.7655 56.8557 41.0575 54.4192C40.609 52.8607 40.2858 51.2685 40.091 49.658C39.8291 47.5618 39.7649 45.4454 39.8991 43.3371C40.0445 40.9145 40.4292 38.5125 41.0476 36.1663C41.9375 32.7752 43.2689 29.5738 45.1173 26.597C46.6993 24.0507 48.5945 21.7739 50.9152 19.8697C52.4435 18.6165 54.103 17.58 55.9256 16.8121C57.7371 16.0464 59.6735 15.6219 61.6379 15.5599C62.4855 15.5402 63.3329 15.6027 64.1685 15.7466C65.825 16.0142 67.3881 16.5674 68.8478 17.3982C69.325 17.6708 69.7973 17.9524 70.2627 18.245C70.6604 18.4966 71.0482 18.7663 71.3823 19.1038C71.7253 19.4513 72.0743 19.7928 72.4164 20.1393C72.9558 20.6901 73.4619 21.273 73.9317 21.8848C74.6955 22.8861 75.3712 23.9523 75.9512 25.0712C76.0218 25.206 76.0576 25.3668 76.1978 25.4587C76.2047 25.5336 76.1968 25.6164 76.2922 25.6454ZM1.3106 36.411C1.34441 37.1929 1.37722 37.822 1.39611 38.4521C1.42097 39.3198 1.51841 40.1816 1.62779 41.0403C1.75407 42.0399 1.93603 43.0325 2.16671 44.0141C2.77026 46.5734 3.67012 49.0179 4.97964 51.3036C6.51984 53.9898 8.49356 56.2865 11.0132 58.0939C11.1027 58.1588 11.1991 58.2227 11.2617 58.3086C11.3512 58.4324 11.4725 58.4933 11.6048 58.5433C12.088 58.727 12.5703 58.9157 13.0585 59.0885C14.2855 59.5219 15.5154 59.9493 16.7444 60.3766C17.8402 60.7591 18.9389 61.1336 20.0326 61.522C21.2437 61.9534 22.4508 62.3977 23.6609 62.8341C24.6493 63.1906 25.6396 63.5411 26.628 63.8966C27.1599 64.0883 27.6849 64.296 28.2209 64.4728C29.2182 64.8033 30.2145 65.1348 31.176 65.5672C31.7626 65.8318 32.3701 66.0465 32.9976 66.1963C33.5842 66.3351 34.147 66.3072 34.6601 65.9327C34.8868 65.7659 35.1383 65.6321 35.377 65.4803C35.4416 65.4394 35.5112 65.3965 35.5599 65.3385C35.6043 65.2829 35.6622 65.2397 35.728 65.2131C35.7939 65.1865 35.8654 65.1775 35.9358 65.1868C36.1068 65.2007 36.2798 65.2127 36.4479 65.2467C36.6925 65.2976 36.9331 65.3765 37.1777 65.4264C37.6828 65.5313 38.177 65.5263 38.6334 65.2387C38.6721 65.2137 38.7179 65.1977 38.7587 65.1758C38.8354 65.135 38.9195 65.1104 39.006 65.1033C39.0925 65.0963 39.1795 65.107 39.2618 65.1348C39.8305 65.3106 40.3893 65.5243 40.9859 65.5902C41.2206 65.7519 41.4612 65.687 41.7088 65.6221C42.0737 65.5253 42.4456 65.4524 42.8254 65.5073C43.073 65.5432 43.3186 65.5982 43.5652 65.6431C43.6109 65.6511 43.6577 65.6531 43.7044 65.6531C43.7183 65.6531 43.7362 65.6431 43.7442 65.6311C43.7501 65.6231 43.7462 65.6012 43.7392 65.5912C43.6805 65.5193 43.6189 65.4484 43.5592 65.3765C43.1555 64.8932 42.7349 64.4238 42.3521 63.9256C40.7533 61.8485 39.577 59.5418 38.703 57.0754C37.888 54.7562 37.3441 52.3499 37.0822 49.9046C36.9098 48.3698 36.8291 46.8259 36.8406 45.2813C36.8436 44.9198 36.8784 44.5573 36.8854 44.1958C36.9132 42.7749 37.0713 41.3679 37.2751 39.9629C37.5832 37.8422 38.0627 35.7503 38.7089 33.7079C39.8415 30.123 41.4354 26.7658 43.59 23.6822C45.1501 21.4504 46.9588 19.4493 49.0787 17.7397C50.9918 16.1979 53.0838 14.9747 55.4056 14.1619C56.7141 13.7025 58.0584 13.39 59.4405 13.2831C60.7411 13.1833 62.0436 13.1892 63.3343 13.4309C63.38 13.4389 63.4277 13.4359 63.4744 13.4349C63.4894 13.4349 63.5043 13.4249 63.5192 13.4199C63.5122 13.4069 63.5093 13.39 63.4993 13.383C63.4088 13.3211 63.3193 13.2582 63.2259 13.2002C63.0207 13.0808 62.8549 12.9038 62.7486 12.691C62.505 12.1817 62.1351 11.7763 61.7165 11.4158C60.9702 10.7584 60.0768 10.2918 59.1124 10.0557C58.8529 9.99382 58.5933 9.92193 58.3308 9.88997C58.0256 9.85203 57.7243 9.7342 57.4041 9.84903C57.248 9.90395 57.0889 9.76116 57.071 9.59739C57.0631 9.55103 57.0641 9.50358 57.074 9.45759C57.1307 9.27286 57.0531 9.12108 56.9736 8.9643C56.722 8.46302 56.3462 8.06259 55.9425 7.68613C55.7358 7.49151 55.4978 7.33349 55.2385 7.2188C54.6251 6.93912 53.9878 6.71554 53.3344 6.55076C52.2824 6.29812 51.2274 6.06346 50.1724 5.8248C48.9952 5.55918 47.8189 5.28557 46.6386 5.03493C45.2277 4.73336 43.8128 4.45576 42.4018 4.16018C39.5481 3.56004 36.6984 2.94592 33.8427 2.35477C32.7072 2.11911 31.5628 1.92738 30.4223 1.71968C29.8665 1.61882 29.3067 1.53894 28.7548 1.4251C28.4744 1.36718 28.2079 1.2873 27.9325 1.4281C27.8798 1.45506 27.8082 1.44407 27.7466 1.45206C26.3147 1.65477 24.9108 1.97931 23.5386 2.44065C21.3808 3.17399 19.3269 4.18568 17.4285 5.45033C14.369 7.46944 11.7609 9.97585 9.51373 12.8707C7.37336 15.6377 5.61847 18.6847 4.29753 21.9277C3.30186 24.3462 2.54907 26.8584 2.05037 29.427C1.78787 30.788 1.57409 32.1571 1.48261 33.5421C1.41401 34.5476 1.36131 35.5542 1.3106 36.411ZM64.95 34.6136L64.9053 33.4412C64.8943 33.1576 64.8933 32.8721 64.8675 32.5905C64.7691 31.54 64.6378 30.4935 64.4151 29.4609C64.0531 27.7734 63.5162 26.1497 62.7118 24.6219C61.9939 23.2588 61.095 22.0336 59.9387 21.009C58.8628 20.0564 57.6428 19.3694 56.2497 19.0029C55.7506 18.8658 55.2389 18.7801 54.7225 18.7473C54.5146 18.7363 54.3516 18.6654 54.3257 18.4277C54.3168 18.3439 54.277 18.3189 54.2044 18.3578C54.094 18.4158 53.9847 18.4777 53.8763 18.5416C51.7435 19.7998 49.9169 21.4225 48.3011 23.2908C46.6983 25.1441 45.3709 27.1852 44.2652 29.3721C43.293 31.2977 42.5018 33.3102 41.9017 35.3834C41.5831 36.4876 41.3134 37.6055 41.0933 38.7337C41.0555 38.9264 41.0685 38.9473 41.2524 39.0003C41.6899 39.1231 42.1304 39.2359 42.5649 39.3707C43.3924 39.6197 44.1771 39.9946 44.8916 40.4821C45.7706 41.0913 46.4239 41.8771 46.7759 42.8957C46.9906 43.5198 47.1736 44.1549 47.3724 44.785C47.4381 44.9947 47.4918 45.2114 47.5773 45.4141C47.9104 46.2079 48.4572 46.7761 49.2974 47.0417C49.7926 47.1985 50.2928 47.3273 50.8038 47.4052C51.8886 47.571 52.9744 47.7288 54.0632 47.8666C55.2146 48.0124 56.3661 48.1532 57.5075 48.3609C58.0445 48.4577 58.5933 48.5236 59.0915 48.7833C59.1625 48.8132 59.2408 48.8209 59.3162 48.8052C59.872 48.7104 60.4269 48.6095 60.9817 48.5086C61.1507 48.4777 61.3496 48.4857 61.4749 48.3938C61.6021 48.3009 61.6608 48.1082 61.7394 47.9544C63.3057 44.8587 64.3161 41.5098 64.7243 38.0616C64.8605 36.9332 64.9013 35.8019 64.95 34.6136ZM78.3962 38.6528C78.4034 37.5333 78.3503 36.4143 78.2371 35.3006C78.1195 34.1567 77.9409 33.0201 77.7022 31.8955C77.1682 29.417 76.338 27.0474 75.113 24.8256C74.3503 23.4416 73.4534 22.1514 72.3736 20.9951C72.2672 20.8802 72.1618 20.7544 72.0306 20.6755C71.8868 20.5814 71.7586 20.4651 71.6507 20.331C71.1178 19.7319 70.5997 19.1128 69.854 18.7593C69.7983 18.7323 69.7506 18.6884 69.6989 18.6524C67.9556 17.4298 65.9529 16.6312 63.8493 16.3198C63.4933 16.2658 63.1314 16.2469 62.7725 16.2139C62.7466 16.2109 62.7188 16.2279 62.6909 16.2359C62.7118 16.2578 62.7287 16.2858 62.7526 16.3028C62.8053 16.3367 62.86 16.3677 62.9156 16.3967C63.6554 16.7881 64.3286 17.2744 64.9669 17.8146C66.0419 18.7362 67.0347 19.7502 67.934 20.8453C68.7626 21.8362 69.4724 22.9214 70.0489 24.0786C70.729 25.4527 71.2122 26.8986 71.5811 28.3855C71.8426 29.442 72.0604 30.5074 72.1181 31.5959C72.1811 32.84 72.1565 34.0869 72.0445 35.3275C72.0402 35.3904 72.0309 35.4529 72.0167 35.5143C71.9659 35.72 71.8198 35.8518 71.6676 35.8338C71.4897 35.8138 71.3823 35.6411 71.4051 35.4004C71.425 35.1807 71.4668 34.9631 71.4728 34.7434C71.4936 34.0344 71.5086 33.3254 71.5135 32.6164C71.5274 31.8435 71.4729 31.0709 71.3505 30.3077C71.1569 29.1746 70.8848 28.0565 70.5361 26.9615C70.028 25.3608 69.3449 23.844 68.3804 22.465C67.2462 20.8534 65.9041 19.4002 64.3892 18.1432C63.6685 17.5323 62.8646 17.0279 62.0019 16.6453C61.7568 16.5403 61.5178 16.4216 61.286 16.2898C61.1775 16.2266 61.0513 16.2013 60.927 16.2179C60.6307 16.2479 60.3324 16.2698 60.0381 16.3148C58.8409 16.4975 57.6686 16.7801 56.544 17.2374C56.022 17.4501 55.51 17.6908 54.9959 17.9235C54.9313 17.9534 54.8269 18.0243 54.8338 18.0603C54.8547 18.1791 54.978 18.1461 55.0645 18.1631C55.0953 18.1691 55.1271 18.1661 55.158 18.1711C55.4672 18.22 55.7804 18.255 56.0857 18.3229C57.3912 18.6174 58.6187 19.1898 59.6851 20.0015C60.9489 20.9481 61.9502 22.1304 62.7705 23.4725C63.5808 24.7956 64.1725 26.2166 64.6119 27.7035C65.1817 29.6337 65.4571 31.6109 65.5387 33.616C65.5965 35.1289 65.5316 36.6441 65.3448 38.1465C65.1837 39.4754 64.9349 40.7921 64.6 42.0878C63.9249 44.6941 62.9485 47.1776 61.5942 49.5052C61.27 50.0634 60.926 50.6096 60.5929 51.1628C60.5253 51.2747 60.5412 51.3346 60.6456 51.3945C60.755 51.4564 60.8663 51.5153 60.9767 51.5752C61.1249 51.6551 61.1527 51.6521 61.2412 51.5123C61.7692 50.6885 62.2186 49.8238 62.5965 48.9211C62.8102 48.4118 62.7416 48.4298 63.2657 48.5296C63.3581 48.5476 63.4536 48.5476 63.545 48.5696C65.2284 48.962 66.7328 49.6989 67.9986 50.8962C68.0324 50.9292 68.0652 50.9711 68.107 50.9851C68.1408 50.9961 68.2114 50.9871 68.2243 50.9631C68.284 50.8533 68.3367 50.7385 68.3794 50.6216C68.7781 49.5432 69.1918 48.4707 69.5666 47.3863C70.0509 45.9863 70.4605 44.5653 70.7718 43.1154C70.9497 42.2836 71.073 41.4428 71.1983 40.602C71.2222 40.4472 71.257 40.2924 71.2978 40.1426C71.3206 40.0568 71.3972 40.0268 71.4807 40.0228C71.5283 40.0215 71.5747 40.0378 71.6111 40.0685C71.6476 40.0993 71.6716 40.1423 71.6786 40.1896C71.6885 40.2515 71.6935 40.3144 71.6955 40.3773C71.7187 41.0555 71.6684 41.7342 71.5453 42.4014C71.2968 43.7163 70.9724 45.0157 70.5739 46.2928C69.9641 48.2634 69.2528 50.2009 68.4431 52.0975C68.111 52.8794 67.7709 53.6593 67.4338 54.4392C67.3533 54.6249 67.2688 54.8106 67.1852 54.9964L67.582 55.4567C67.5929 55.4687 67.6059 55.4886 67.6158 55.4866C67.6546 55.4837 67.7112 55.4846 67.7281 55.4607C67.7908 55.3708 67.8445 55.274 67.8942 55.1761C68.2482 54.4901 68.5654 53.7881 68.8458 53.0681C68.8915 52.9503 68.9362 52.8335 68.989 52.7196C68.9989 52.6966 69.0377 52.6727 69.0635 52.6727C69.0834 52.6727 69.1122 52.7046 69.1232 52.7286C69.1908 52.8714 69.2465 53.0202 69.322 53.158C69.4811 53.4466 69.6353 53.7392 69.8182 54.0128C70.0837 54.4082 70.4695 54.6469 70.9269 54.7597C71.1397 54.8116 71.3574 54.8476 71.5752 54.8715C72.4661 54.9654 73.361 54.9644 74.2549 54.9844C74.4239 54.9874 74.5164 54.9185 74.583 54.7767C74.7838 54.3503 74.9946 53.9279 75.1915 53.4985C76.2134 51.2637 76.9937 48.9253 77.5192 46.5235C77.7588 45.4311 77.9746 44.3346 78.0939 43.2212C78.1814 42.4074 78.2799 41.5936 78.3355 40.7767C78.3843 40.0717 78.3783 39.3618 78.3962 38.6528ZM52.5628 91.3373C54.0771 91.3253 55.4234 91.3063 56.7658 91.1326C57.7931 91.008 58.8043 90.7744 59.7825 90.4356C59.8861 90.3992 59.9862 90.3537 60.0818 90.2998C60.1753 90.2458 60.2141 90.121 60.1882 90.0092C60.1756 89.9553 60.1459 89.907 60.1036 89.8715C60.0613 89.836 60.0086 89.8153 59.9536 89.8125C59.8757 89.8119 59.798 89.82 59.7219 89.8364C58.5834 90.0591 57.4459 90.2898 56.2885 90.3886C55.6323 90.4456 54.976 90.5165 54.3188 90.5344C53.0015 90.5732 51.6832 90.5566 50.3673 90.4845C49.3028 90.4263 48.2396 90.3451 47.1786 90.2409C46.0251 90.126 44.8757 89.9603 43.7273 89.8035C42.0975 89.5757 40.4762 89.2912 38.866 88.9507C35.6282 88.2699 32.4486 87.335 29.3564 86.1547C27.668 85.5146 26.0155 84.7957 24.4365 83.9119C24.2177 83.7891 23.999 83.6653 23.7812 83.5385C23.6616 83.462 23.5223 83.4225 23.3805 83.4246C23.1528 83.4346 23.0126 83.6193 23.0564 83.847C23.0772 83.957 23.1404 84.0543 23.2324 84.1176C23.3338 84.1895 23.4422 84.2544 23.5505 84.3183C24.498 84.8752 25.4764 85.3773 26.4808 85.8222C28.5013 86.7289 30.5784 87.4818 32.6873 88.1498C35.093 88.9157 37.5442 89.529 40.0264 89.9862C41.0277 90.169 42.031 90.3497 43.0362 90.5105C43.7939 90.6313 44.5565 90.7272 45.3192 90.82C46.0192 90.9049 46.7212 90.9778 47.4232 91.0417C48.3906 91.1296 49.3591 91.2234 50.3286 91.2794C51.127 91.3263 51.9274 91.3223 52.5628 91.3373ZM90.5329 89.8774C90.6472 89.8474 90.7377 89.8235 90.8292 89.8015C92.0002 89.5087 93.1527 89.1455 94.2804 88.714C97.8232 87.377 101.234 85.7523 104.563 83.9499C105.709 83.3288 106.835 82.6747 107.907 81.9278C108.061 81.8209 108.212 81.7071 108.363 81.5942C108.413 81.5573 108.461 81.5164 108.504 81.4704C108.627 81.3346 108.648 81.1289 108.558 80.9901C108.467 80.8523 108.273 80.8094 108.097 80.9002C108 80.952 107.907 81.0115 107.82 81.078C107.147 81.5703 106.445 82.0166 105.726 82.436C103.012 84.0198 100.197 85.4038 97.326 86.677C95.6198 87.4339 93.8698 88.084 92.1218 88.735C91.6077 88.9267 91.0917 89.1135 90.5796 89.3112C90.4805 89.3536 90.3894 89.4127 90.3101 89.4859C90.2395 89.5469 90.2415 89.6787 90.3131 89.7426C90.3797 89.8015 90.4662 89.8374 90.5329 89.8774ZM86.1966 58.8189C86.5805 58.8289 87.1134 58.8468 87.6464 58.8558C87.7856 58.8588 87.9258 58.8458 88.064 58.8249C88.1475 58.8119 88.1793 58.6411 88.1107 58.5872C88.0637 58.5469 88.0102 58.5149 87.9526 58.4923C87.7125 58.4173 87.4623 58.3802 87.2109 58.3825C85.8624 58.3528 84.5133 58.3928 83.1689 58.5023C82.7483 58.5383 82.3287 58.5922 81.9091 58.6471C81.4587 58.707 81.0103 58.7969 80.5589 58.8329C80.153 58.8723 79.7443 58.8707 79.3388 58.8279C78.5435 58.7289 77.7712 58.4927 77.0559 58.1299C76.6522 57.9232 76.2773 57.6605 75.8885 57.4249C75.5942 57.2451 75.3009 57.0634 75.0026 56.8916C74.8932 56.8287 74.8226 56.8687 74.7451 57.0115C74.6625 57.1593 74.6705 57.2072 74.7938 57.2831C75.1259 57.4908 75.4679 57.6845 75.7901 57.9082C76.6562 58.5095 77.631 58.9348 78.6597 59.1604C79.0743 59.2533 79.49 59.3102 79.9155 59.3162C80.3729 59.3212 80.8233 59.2642 81.2708 59.1863C82.276 59.0126 83.2912 58.9427 84.3064 58.8718C84.8851 58.8309 85.4668 58.8369 86.1966 58.8189ZM52.7805 65.9557C53.4726 65.9766 54.2352 65.8778 54.9909 65.736C55.4523 65.6491 55.9037 65.5133 56.3581 65.3925C56.4814 65.3595 56.5142 65.2986 56.4914 65.1858C56.4695 65.0779 56.4416 64.9711 56.4148 64.8642C56.3571 64.6365 56.3432 64.6256 56.1374 64.6855C55.1858 64.9621 54.2183 65.1408 53.23 65.2307C52.103 65.3306 50.9674 65.2302 49.8751 64.9341C49.0648 64.7194 48.3151 64.3649 47.6041 63.9236C47.4848 63.8497 47.3565 63.7908 47.2293 63.7308C47.2094 63.7209 47.1626 63.7368 47.1477 63.7558C47.1358 63.7718 47.1418 63.8217 47.1577 63.8367C47.5196 64.1632 47.8726 64.4997 48.2494 64.8073C48.6143 65.1049 49.0041 65.3715 49.3849 65.6501C49.4774 65.718 49.5689 65.7729 49.6524 65.6231C49.6733 65.5862 49.7608 65.5742 49.8185 65.5732C49.8791 65.5732 49.9408 65.5982 50.0014 65.6131C50.8864 65.8498 51.7852 65.9636 52.7805 65.9557ZM52.4584 69.8531C52.5011 69.8241 52.5787 69.7991 52.5847 69.7632C52.5916 69.7103 52.5528 69.6464 52.522 69.5944C52.5101 69.5725 52.4703 69.5625 52.4415 69.5515C52.3826 69.5293 52.3229 69.5093 52.2625 69.4916C50.7869 69.0722 49.4426 68.3692 48.153 67.5514C46.8196 66.7056 45.6403 65.674 44.5685 64.5157C44.2602 64.1832 44.3199 64.1642 43.8028 64.3499C43.7883 64.3553 43.7741 64.3613 43.7601 64.3679C43.7034 64.3939 43.6795 64.4738 43.7213 64.5247C43.8197 64.6475 43.9182 64.7703 44.0246 64.8852C44.5145 65.4166 45.0344 65.9194 45.5817 66.391C47.3088 67.8739 49.2477 68.9663 51.4382 69.5934C51.7683 69.6873 52.1054 69.7632 52.4584 69.8531ZM56.727 85.5396L56.728 85.5656C57.4171 85.5296 58.1051 85.4937 58.7942 85.4557C59.4355 85.4208 60.0779 85.3898 60.7182 85.3419C60.9191 85.3279 61.1199 85.278 61.3158 85.2241C61.4729 85.1811 61.5783 85.0353 61.5594 84.9155C61.5528 84.8521 61.5263 84.7924 61.4838 84.745C61.4413 84.6976 61.3849 84.665 61.3227 84.6519C61.1716 84.6124 61.0165 84.5899 60.8604 84.585C60.4537 84.586 60.046 84.5989 59.6384 84.6189C58.7306 84.6638 57.8237 84.7268 56.9149 84.7627C56.3044 84.7867 55.6929 84.7747 55.0804 84.7807C54.9879 84.7817 54.8895 84.7807 54.802 84.8066C54.7413 84.8241 54.6864 84.8573 54.6426 84.9029C54.5989 84.9486 54.5679 85.005 54.5529 85.0666C54.5378 85.1281 54.5392 85.1925 54.557 85.2533C54.5747 85.3141 54.6081 85.3691 54.6538 85.4128C54.721 85.4774 54.8058 85.5205 54.8975 85.5366C55.1142 85.5676 55.334 85.5865 55.5527 85.5845C55.9445 85.5795 56.3352 85.5556 56.727 85.5396ZM61.5912 57.0554C61.5455 57.0933 61.4769 57.1313 61.4371 57.1892C61.4144 57.2225 61.4056 57.2633 61.4125 57.3031C61.4193 57.3428 61.4414 57.3782 61.4739 57.4019C61.5862 57.4838 61.7085 57.5587 61.8368 57.6096C62.0406 57.6895 62.2534 57.7454 62.4622 57.8133C63.5465 58.1579 64.499 58.829 65.1906 59.7356C65.478 60.109 65.7465 60.4975 66.002 60.8929C66.3331 61.4082 66.6364 61.9414 66.9635 62.4607C67.5074 63.3224 68.2313 64.0164 69.0277 64.6385C69.1371 64.7254 69.2654 64.7903 69.3897 64.8562C69.4443 64.8866 69.5063 64.9008 69.5686 64.8972C69.6233 64.8912 69.6939 64.8572 69.7188 64.8133C69.7436 64.7704 69.7416 64.6785 69.7108 64.6435C69.6184 64.5397 69.512 64.4448 69.4006 64.3609C68.4272 63.622 67.6019 62.7482 66.9993 61.6748C66.8999 61.496 66.7945 61.3203 66.6851 61.1475C66.3978 60.6982 66.1213 60.2388 65.8141 59.8025C65.0037 58.6501 63.9467 57.8203 62.5994 57.3839C62.3171 57.2921 62.0377 57.1892 61.7563 57.0924C61.7125 57.0774 61.6658 57.0724 61.5912 57.0554ZM102.359 61.1316H102.262C102.177 61.1415 102.114 61.1815 102.085 61.2634C102.07 61.3081 102.072 61.3565 102.089 61.4002C102.107 61.4439 102.138 61.4803 102.179 61.503C102.235 61.533 102.292 61.5629 102.352 61.5769C103.342 61.8236 104.296 62.1791 105.241 62.5545C107.437 63.4273 109.413 64.6415 110.986 66.447C111.025 66.4956 111.069 66.5404 111.117 66.5808C111.182 66.6337 111.259 66.6517 111.334 66.6037C111.351 66.5937 111.366 66.5803 111.378 66.5643C111.389 66.5483 111.398 66.53 111.402 66.5106C111.407 66.4912 111.407 66.4711 111.403 66.4516C111.4 66.432 111.392 66.4135 111.381 66.397C111.243 66.1703 111.113 65.9327 110.942 65.731C110.729 65.4797 110.495 65.2468 110.242 65.035C108.837 63.8627 107.317 62.8731 105.603 62.214C104.813 61.9114 104.013 61.6388 103.216 61.3582C103.01 61.2863 102.796 61.2354 102.584 61.1785C102.495 61.1535 102.402 61.1405 102.359 61.1316ZM76.2117 67.9478C76.1948 67.9128 76.1799 67.823 76.1262 67.782C75.9649 67.6595 75.7951 67.5487 75.6181 67.4505C74.7441 66.9672 73.8303 66.5518 73.0398 65.9257C72.9771 65.8804 72.9051 65.8497 72.829 65.8358C72.7485 65.8188 72.6659 65.8518 72.6341 65.9297C72.6122 65.9869 72.6125 66.0504 72.6351 66.1074C72.6669 66.1743 72.7226 66.2383 72.7833 66.2832C73.0209 66.4609 73.2526 66.6536 73.5091 66.7984C74.2578 67.2188 75.0175 67.6203 75.7742 68.0267C75.8557 68.0696 75.9492 68.0916 76.0387 68.1166C76.1033 68.1345 76.2027 68.0566 76.2117 67.9478ZM71.2968 56.65C71.5951 56.6779 71.9988 56.7109 72.4005 56.7548C72.6799 56.7858 72.9573 56.8297 73.2347 56.8677C73.356 56.8846 73.4485 56.8477 73.5061 56.7349C73.535 56.6799 73.5678 56.625 73.5877 56.5671C73.5946 56.5471 73.5767 56.5032 73.5588 56.4942C73.5041 56.4644 73.4451 56.4435 73.3838 56.4323C72.8897 56.3634 72.3965 56.2835 71.9003 56.2386C71.5423 56.2121 71.1832 56.2054 70.8245 56.2186C70.6713 56.2206 70.5182 56.2685 70.3671 56.3035C70.3215 56.3133 70.2807 56.3387 70.2517 56.3754C70.2199 56.4243 70.1861 56.4912 70.196 56.5431C70.206 56.5941 70.2597 56.657 70.3084 56.6759C70.3822 56.6979 70.4596 56.705 70.5361 56.6969C70.7539 56.6869 70.9716 56.67 71.2968 56.65ZM51.3756 50.6436C51.3646 50.6176 51.3597 50.5797 51.3398 50.5707C51.3209 50.5617 51.2891 50.5827 51.2622 50.5907L51.308 50.6885C51.3298 50.6725 51.3537 50.6586 51.3756 50.6436Z" fill="black"/>
</svg>
